HIERARCHY
ROOT root
{
	OFFSET 0.000000 0.000000 0.000000
	CHANNELS 6 Xposition Yposition Zposition Zrotation Yrotation Xrotation
	JOINT lhip
	{
		OFFSET 0.058581 -0.082280 -0.017664
		CHANNELS 3 Zrotation Yrotation Xrotation
		JOINT lknee
		{
			OFFSET 0.043451 -0.386469 0.008037
			CHANNELS 3 Zrotation Yrotation Xrotation
			JOINT lankle
			{
				OFFSET -0.014790 -0.426874 -0.037428
				CHANNELS 3 Zrotation Yrotation Xrotation
				JOINT ltoe
				{
					OFFSET 0.041054 -0.060286 0.122042
					CHANNELS 3 Zrotation Yrotation Xrotation
					End Site
					{
						OFFSET 0.000000 0.000000 0.000000
					}
				}
			}
		}
	}
	JOINT rhip
	{
		OFFSET -0.060310 -0.090513 -0.013543
		CHANNELS 3 Zrotation Yrotation Xrotation
		JOINT rknee
		{
			OFFSET -0.043257 -0.383688 -0.004843
			CHANNELS 3 Zrotation Yrotation Xrotation
			JOINT rankle
			{
				OFFSET 0.019056 -0.420046 -0.034562
				CHANNELS 3 Zrotation Yrotation Xrotation
				JOINT rtoe
				{
					OFFSET -0.034840 -0.062106 0.130323
					CHANNELS 3 Zrotation Yrotation Xrotation
					End Site
					{
						OFFSET 0.000000 0.000000 0.000000
					}
				}
			}
		}
	}
	JOINT lowerback
	{
		OFFSET 0.004439 0.124404 -0.038385
		CHANNELS 3 Zrotation Yrotation Xrotation
		JOINT upperback
		{
			OFFSET 0.004488 0.137956 0.026820
			CHANNELS 3 Zrotation Yrotation Xrotation
			JOINT chest
			{
				OFFSET -0.002265 0.056032 0.002855
				CHANNELS 3 Zrotation Yrotation Xrotation
				JOINT lowerneck
				{
					OFFSET -0.013390 0.211636 -0.033468
					CHANNELS 3 Zrotation Yrotation Xrotation
					JOINT upperneck
					{
						OFFSET 0.010113 0.088937 0.050410
						CHANNELS 3 Zrotation Yrotation Xrotation
						End Site
						{
							OFFSET 0.000000 0.000000 0.000000
						}
					}
				}
				JOINT lclavicle
				{
					OFFSET 0.071702 0.114000 -0.018898
					CHANNELS 3 Zrotation Yrotation Xrotation
					JOINT lshoulder
					{
						OFFSET 0.122921 0.045205 -0.019046
						CHANNELS 3 Zrotation Yrotation Xrotation
						JOINT lelbow
						{
							OFFSET 0.255332 -0.015649 -0.022946
							CHANNELS 3 Zrotation Yrotation Xrotation
							JOINT lwrist
							{
								OFFSET 0.265709 0.012698 -0.007375
								CHANNELS 3 Zrotation Yrotation Xrotation
								End Site
								{
									OFFSET 0.000000 0.000000 0.000000
								}
							}
						}
					}
				}
				JOINT rclavicle
				{
					OFFSET -0.082954 0.112472 -0.023707
					CHANNELS 3 Zrotation Yrotation Xrotation
					JOINT rshoulder
					{
						OFFSET -0.113228 0.046853 -0.008472
						CHANNELS 3 Zrotation Yrotation Xrotation
						JOINT relbow
						{
							OFFSET -0.260127 -0.014369 -0.031269
							CHANNELS 3 Zrotation Yrotation Xrotation
							JOINT rwrist
							{
								OFFSET -0.269108 0.006794 -0.006027
								CHANNELS 3 Zrotation Yrotation Xrotation
								End Site
								{
									OFFSET 0.000000 0.000000 0.000000
								}
							}
						}
					}
				}
			}
		}
	}
}
MOTION
Frames: 5
Frame Time: 0.033333
-1.324333 1.053917 0.962866 67.472565 -2.489766 90.513583 5.541070 -2.522183 -13.110428 -1.259582 -3.720213 22.597706 0.753485 16.733905 -15.303021 0.000000 -0.000000 0.000000 5.669568 0.276454 -10.470181 -3.773292 4.261504 8.572797 1.442116 -12.670783 -19.069427 0.000000 -0.000000 0.000000 -0.927581 1.233301 9.353590 1.803496 -2.772414 0.507192 1.763558 -0.667134 1.480726 -3.480722 1.632227 4.319500 0.393285 -3.889435 0.982538 -10.139630 -2.025329 0.512887 -33.333815 -9.677831 16.140611 -40.120978 -53.100491 50.052635 0.117246 -23.462928 -9.809660 7.694559 3.555813 0.498281 23.845446 6.593117 15.576621 34.319817 50.013318 48.825288 5.666994 14.351054 -0.986287 
-1.325928 1.051360 0.962935 67.655646 -2.881984 90.357952 4.790434 -2.855292 -14.659335 -0.891050 -2.181011 25.368083 1.515652 17.876607 -14.866901 0.000000 -0.000000 0.000000 5.607880 -0.056460 -10.405580 -3.810169 4.860036 8.641260 1.590621 -13.244881 -19.129950 0.000000 -0.000000 0.000000 -0.764491 1.290933 10.570769 1.686324 -2.948026 -1.239916 1.655950 -0.820774 2.442561 -3.675064 1.271157 4.167758 0.401584 -3.219988 1.186726 -8.465489 -1.176100 -0.156630 -32.378739 -9.068856 15.181550 -35.240573 -49.513608 46.979066 1.135319 -23.297787 -8.651597 5.970596 2.624183 -0.020904 22.807213 6.252579 14.166942 28.859327 45.710668 43.740690 4.988494 13.734034 -0.071418 
-1.326752 1.047517 0.962381 66.544989 -3.139030 90.585569 4.432463 -2.365609 -15.669887 -1.825005 -1.883485 26.773376 1.578959 18.052210 -15.761555 0.000000 -0.000000 0.000000 5.907181 0.321424 -10.652716 -4.011045 5.753721 8.710171 1.644242 -13.543644 -19.004359 0.000000 -0.000000 0.000000 -0.873252 1.630760 10.769290 1.569413 -2.425581 -2.018880 1.613617 -0.616238 2.781556 -3.713429 1.268349 5.056873 0.216379 -2.810585 1.135743 -6.915853 -0.241977 -0.514443 -31.147377 -8.882280 13.561058 -30.397379 -45.253321 42.255607 1.614680 -23.877694 -7.297586 4.297371 1.560487 -0.239668 22.033678 6.133117 12.301656 23.801606 40.960193 37.893643 3.043464 13.497597 0.963279 
-1.326826 1.044717 0.962445 66.030334 -3.318500 90.636651 3.569347 -2.939244 -16.580929 -2.926628 -2.446912 27.444093 1.594806 17.721992 -16.300231 0.000000 -0.000000 0.000000 5.826352 0.405358 -10.558710 -3.657352 6.295381 8.476666 1.866022 -14.050135 -19.070995 0.000000 -0.000000 0.000000 -0.521674 1.746809 11.397043 1.378055 -2.341999 -3.132917 1.456111 -0.346107 3.154158 -3.732028 1.401489 5.791164 0.199897 -2.443655 1.135090 -5.299330 0.911041 -1.215441 -29.334692 -8.593143 11.236585 -24.370277 -39.477333 36.230577 -0.834993 -24.848480 -4.668743 2.581091 0.562974 -0.772656 20.546197 5.605725 9.838370 17.818344 34.368945 31.069367 4.338606 12.996493 1.584796 
-1.326426 1.042968 0.962564 65.937588 -3.427722 90.635156 2.847217 -3.296353 -16.881892 -3.648259 -3.785812 27.424922 1.283939 17.047890 -17.072622 0.000000 -0.000000 0.000000 5.933574 0.358573 -10.491024 -3.757463 6.757313 8.447113 1.940252 -14.304944 -19.017529 0.000000 -0.000000 0.000000 -0.430067 1.798168 11.599281 1.399853 -2.353966 -3.745890 1.405893 -0.337288 3.389470 -3.772190 1.229118 6.355417 0.010226 -2.498352 1.231222 -4.416979 1.485076 -1.606053 -27.968389 -8.371045 9.787124 -21.186091 -36.111159 32.779947 -1.714762 -25.042667 -3.244987 1.622860 -0.107074 -1.160093 19.609599 5.494336 8.082678 14.539758 30.608100 27.170090 5.169763 12.282168 2.411618 
